solid ASCII
  facet normal 1.065815e-13 -1.000000e+00 1.581346e-08
    outer loop
      vertex   5.000003e+00 -4.475000e+00 7.592858e+01
      vertex   5.000003e+00 -4.475000e+00 1.018821e+02
      vertex   4.900003e+00 -4.475000e+00 7.592858e+01
    endloop
  endfacet
  facet normal 0.000000e+00 -1.000000e+00 1.581346e-08
    outer loop
      vertex   4.900003e+00 -4.475000e+00 7.592858e+01
      vertex   5.000003e+00 -4.475000e+00 1.018821e+02
      vertex   4.900003e+00 -4.475000e+00 1.018821e+02
    endloop
  endfacet
  facet normal 7.071068e-01 -7.071068e-01 1.118181e-08
    outer loop
      vertex   6.700004e+00 -2.775000e+00 7.592858e+01
      vertex   6.051617e+00 -3.423386e+00 1.017469e+02
      vertex   5.000003e+00 -4.475000e+00 7.592858e+01
    endloop
  endfacet
  facet normal 7.071068e-01 -7.071068e-01 1.118181e-08
    outer loop
      vertex   5.000003e+00 -4.475000e+00 7.592858e+01
      vertex   6.051617e+00 -3.423386e+00 1.017469e+02
      vertex   5.300003e+00 -4.175000e+00 1.021404e+02
    endloop
  endfacet
  facet normal 7.071068e-01 -7.071068e-01 1.118181e-08
    outer loop
      vertex   5.000003e+00 -4.475000e+00 7.592858e+01
      vertex   5.300003e+00 -4.175000e+00 1.021404e+02
      vertex   5.000003e+00 -4.475000e+00 1.018821e+02
    endloop
  endfacet
  facet normal 7.071068e-01 -7.071068e-01 1.118181e-08
    outer loop
      vertex   6.700004e+00 -2.775000e+00 7.592858e+01
      vertex   6.700004e+00 -2.774999e+00 1.013534e+02
      vertex   6.051617e+00 -3.423386e+00 1.017469e+02
    endloop
  endfacet
  facet normal 7.071068e-01 7.071068e-01 1.118180e-08
    outer loop
      vertex   6.700004e+00 1.227750e+02 1.013534e+02
      vertex   6.700004e+00 1.227750e+02 7.592858e+01
      vertex   6.051617e+00 1.234234e+02 1.017469e+02
    endloop
  endfacet
  facet normal 7.071068e-01 7.071068e-01 1.118180e-08
    outer loop
      vertex   6.051617e+00 1.234234e+02 1.017469e+02
      vertex   6.700004e+00 1.227750e+02 7.592858e+01
      vertex   5.000003e+00 1.244750e+02 7.592858e+01
    endloop
  endfacet
  facet normal 7.071068e-01 7.071068e-01 1.118180e-08
    outer loop
      vertex   6.051617e+00 1.234234e+02 1.017469e+02
      vertex   5.000003e+00 1.244750e+02 7.592858e+01
      vertex   5.300003e+00 1.241750e+02 1.021404e+02
    endloop
  endfacet
  facet normal 7.071068e-01 7.071068e-01 1.118180e-08
    outer loop
      vertex   5.300003e+00 1.241750e+02 1.021404e+02
      vertex   5.000003e+00 1.244750e+02 7.592858e+01
      vertex   5.000003e+00 1.244750e+02 1.018821e+02
    endloop
  endfacet
  facet normal 7.033750e-01 2.353245e-01 6.707354e-01
    outer loop
      vertex   6.700004e+00 1.224600e+02 1.014639e+02
      vertex   6.700004e+00 1.227750e+02 1.013534e+02
      vertex   5.300003e+00 1.234499e+02 1.025848e+02
    endloop
  endfacet
  facet normal 7.081067e-01 3.289061e-01 6.248245e-01
    outer loop
      vertex   5.300003e+00 1.234499e+02 1.025848e+02
      vertex   6.700004e+00 1.227750e+02 1.013534e+02
      vertex   6.051617e+00 1.234234e+02 1.017469e+02
    endloop
  endfacet
  facet normal 6.958460e-01 3.752512e-01 6.123600e-01
    outer loop
      vertex   5.300003e+00 1.234499e+02 1.025848e+02
      vertex   6.051617e+00 1.234234e+02 1.017469e+02
      vertex   5.300003e+00 1.241750e+02 1.021404e+02
    endloop
  endfacet
  facet normal 7.022700e-01 2.305986e-01 6.735288e-01
    outer loop
      vertex   5.300003e+00 1.234499e+02 1.025848e+02
      vertex   5.300003e+00 1.226453e+02 1.028603e+02
      vertex   6.700004e+00 1.224600e+02 1.014639e+02
    endloop
  endfacet
  facet normal 7.083771e-01 1.419267e-01 6.914179e-01
    outer loop
      vertex   6.700004e+00 1.224600e+02 1.014639e+02
      vertex   5.300003e+00 1.226453e+02 1.028603e+02
      vertex   6.700004e+00 1.221330e+02 1.015311e+02
    endloop
  endfacet
  facet normal 7.013229e-01 7.822284e-02 7.085389e-01
    outer loop
      vertex   6.700004e+00 1.221330e+02 1.015311e+02
      vertex   5.300003e+00 1.226453e+02 1.028603e+02
      vertex   5.300003e+00 1.218000e+02 1.029536e+02
    endloop
  endfacet
  facet normal 7.063006e-01 4.773760e-02 7.063006e-01
    outer loop
      vertex   6.700004e+00 1.221330e+02 1.015311e+02
      vertex   5.300003e+00 1.218000e+02 1.029536e+02
      vertex   6.700004e+00 1.218000e+02 1.015536e+02
    endloop
  endfacet
  facet normal 6.958460e-01 -3.752512e-01 6.123600e-01
    outer loop
      vertex   5.300003e+00 -4.175000e+00 1.021404e+02
      vertex   6.051617e+00 -3.423386e+00 1.017469e+02
      vertex   5.300003e+00 -3.449883e+00 1.025848e+02
    endloop
  endfacet
  facet normal 7.081067e-01 -3.289061e-01 6.248245e-01
    outer loop
      vertex   5.300003e+00 -3.449883e+00 1.025848e+02
      vertex   6.051617e+00 -3.423386e+00 1.017469e+02
      vertex   6.700004e+00 -2.774999e+00 1.013534e+02
    endloop
  endfacet
  facet normal 7.033750e-01 -2.353245e-01 6.707354e-01
    outer loop
      vertex   5.300003e+00 -3.449883e+00 1.025848e+02
      vertex   6.700004e+00 -2.774999e+00 1.013534e+02
      vertex   6.700004e+00 -2.460023e+00 1.014639e+02
    endloop
  endfacet
  facet normal 7.022700e-01 -2.305986e-01 6.735288e-01
    outer loop
      vertex   5.300003e+00 -3.449883e+00 1.025848e+02
      vertex   6.700004e+00 -2.460023e+00 1.014639e+02
      vertex   5.300003e+00 -2.645299e+00 1.028603e+02
    endloop
  endfacet
  facet normal 7.083771e-01 -1.419267e-01 6.914179e-01
    outer loop
      vertex   5.300003e+00 -2.645299e+00 1.028603e+02
      vertex   6.700004e+00 -2.460023e+00 1.014639e+02
      vertex   6.700004e+00 -2.133040e+00 1.015311e+02
    endloop
  endfacet
  facet normal 7.013229e-01 -7.822284e-02 7.085389e-01
    outer loop
      vertex   5.300003e+00 -2.645299e+00 1.028603e+02
      vertex   6.700004e+00 -2.133040e+00 1.015311e+02
      vertex   5.300003e+00 -1.800000e+00 1.029536e+02
    endloop
  endfacet
  facet normal 7.063006e-01 -4.773760e-02 7.063006e-01
    outer loop
      vertex   5.300003e+00 -1.800000e+00 1.029536e+02
      vertex   6.700004e+00 -2.133040e+00 1.015311e+02
      vertex   6.700004e+00 -1.800000e+00 1.015536e+02
    endloop
  endfacet
  facet normal -0.000000e+00 1.000000e+00 1.581345e-08
    outer loop
      vertex   4.900003e+00 1.244750e+02 7.592858e+01
      vertex   4.900003e+00 1.244750e+02 1.018821e+02
      vertex   5.000003e+00 1.244750e+02 7.592858e+01
    endloop
  endfacet
  facet normal 0.000000e+00 1.000000e+00 1.581345e-08
    outer loop
      vertex   5.000003e+00 1.244750e+02 7.592858e+01
      vertex   4.900003e+00 1.244750e+02 1.018821e+02
      vertex   5.000003e+00 1.244750e+02 1.018821e+02
    endloop
  endfacet
  facet normal 0.000000e+00 6.524646e-01 7.578192e-01
    outer loop
      vertex   5.000003e+00 1.244750e+02 1.018821e+02
      vertex   4.900003e+00 1.244750e+02 1.018821e+02
      vertex   5.300003e+00 1.241750e+02 1.021404e+02
    endloop
  endfacet
  facet normal -4.362806e-02 6.178016e-01 7.851227e-01
    outer loop
      vertex   5.300003e+00 1.241750e+02 1.021404e+02
      vertex   4.900003e+00 1.244750e+02 1.018821e+02
      vertex   4.900003e+00 1.238958e+02 1.023379e+02
    endloop
  endfacet
  facet normal 5.613787e-02 5.216711e-01 8.512977e-01
    outer loop
      vertex   5.300003e+00 1.241750e+02 1.021404e+02
      vertex   4.900003e+00 1.238958e+02 1.023379e+02
      vertex   5.300003e+00 1.234499e+02 1.025848e+02
    endloop
  endfacet
  facet normal -3.746480e-02 4.580916e-01 8.881151e-01
    outer loop
      vertex   5.300003e+00 1.234499e+02 1.025848e+02
      vertex   4.900003e+00 1.238958e+02 1.023379e+02
      vertex   4.900003e+00 1.232408e+02 1.026758e+02
    endloop
  endfacet
  facet normal 4.580765e-02 3.235751e-01 9.450930e-01
    outer loop
      vertex   5.300003e+00 1.234499e+02 1.025848e+02
      vertex   4.900003e+00 1.232408e+02 1.026758e+02
      vertex   5.300003e+00 1.226453e+02 1.028603e+02
    endloop
  endfacet
  facet normal -2.292435e-02 2.817796e-01 9.592053e-01
    outer loop
      vertex   5.300003e+00 1.226453e+02 1.028603e+02
      vertex   4.900003e+00 1.232408e+02 1.026758e+02
      vertex   4.900003e+00 1.225337e+02 1.028835e+02
    endloop
  endfacet
  facet normal 2.709824e-02 1.096932e-01 9.935960e-01
    outer loop
      vertex   5.300003e+00 1.226453e+02 1.028603e+02
      vertex   4.900003e+00 1.225337e+02 1.028835e+02
      vertex   5.300003e+00 1.218000e+02 1.029536e+02
    endloop
  endfacet
  facet normal 0.000000e+00 9.509792e-02 9.954679e-01
    outer loop
      vertex   5.300003e+00 1.218000e+02 1.029536e+02
      vertex   4.900003e+00 1.225337e+02 1.028835e+02
      vertex   4.900003e+00 1.218000e+02 1.029536e+02
    endloop
  endfacet
  facet normal 0.000000e+00 -6.183904e-01 7.858710e-01
    outer loop
      vertex   4.900003e+00 -4.475000e+00 1.018821e+02
      vertex   5.000003e+00 -4.475000e+00 1.018821e+02
      vertex   4.900003e+00 -3.895806e+00 1.023379e+02
    endloop
  endfacet
  facet normal -4.933025e-02 -6.228838e-01 7.807575e-01
    outer loop
      vertex   4.900003e+00 -3.895806e+00 1.023379e+02
      vertex   5.000003e+00 -4.475000e+00 1.018821e+02
      vertex   5.300003e+00 -4.175000e+00 1.021404e+02
    endloop
  endfacet
  facet normal 5.613787e-02 -5.216711e-01 8.512977e-01
    outer loop
      vertex   4.900003e+00 -3.895806e+00 1.023379e+02
      vertex   5.300003e+00 -4.175000e+00 1.021404e+02
      vertex   5.300003e+00 -3.449883e+00 1.025848e+02
    endloop
  endfacet
  facet normal -3.746480e-02 -4.580916e-01 8.881151e-01
    outer loop
      vertex   4.900003e+00 -3.895806e+00 1.023379e+02
      vertex   5.300003e+00 -3.449883e+00 1.025848e+02
      vertex   4.900003e+00 -3.240797e+00 1.026758e+02
    endloop
  endfacet
  facet normal 4.580765e-02 -3.235751e-01 9.450930e-01
    outer loop
      vertex   4.900003e+00 -3.240797e+00 1.026758e+02
      vertex   5.300003e+00 -3.449883e+00 1.025848e+02
      vertex   5.300003e+00 -2.645299e+00 1.028603e+02
    endloop
  endfacet
  facet normal -2.292435e-02 -2.817796e-01 9.592053e-01
    outer loop
      vertex   4.900003e+00 -3.240797e+00 1.026758e+02
      vertex   5.300003e+00 -2.645299e+00 1.028603e+02
      vertex   4.900003e+00 -2.533669e+00 1.028835e+02
    endloop
  endfacet
  facet normal 2.709824e-02 -1.096932e-01 9.935960e-01
    outer loop
      vertex   4.900003e+00 -2.533669e+00 1.028835e+02
      vertex   5.300003e+00 -2.645299e+00 1.028603e+02
      vertex   5.300003e+00 -1.800000e+00 1.029536e+02
    endloop
  endfacet
  facet normal 9.414940e-17 -9.509792e-02 9.954679e-01
    outer loop
      vertex   4.900003e+00 -2.533669e+00 1.028835e+02
      vertex   5.300003e+00 -1.800000e+00 1.029536e+02
      vertex   4.900003e+00 -1.800000e+00 1.029536e+02
    endloop
  endfacet
  facet normal 7.071068e-01 -2.642227e-16 7.071068e-01
    outer loop
      vertex   5.300003e+00 1.218000e+02 1.029536e+02
      vertex   5.300003e+00 -1.800000e+00 1.029536e+02
      vertex   6.700004e+00 1.218000e+02 1.015536e+02
    endloop
  endfacet
  facet normal 7.071068e-01 -2.438979e-16 7.071068e-01
    outer loop
      vertex   6.700004e+00 1.218000e+02 1.015536e+02
      vertex   5.300003e+00 -1.800000e+00 1.029536e+02
      vertex   6.700004e+00 -1.800000e+00 1.015536e+02
    endloop
  endfacet
  facet normal 0.000000e+00 -2.299491e-16 1.000000e+00
    outer loop
      vertex   4.900003e+00 1.218000e+02 1.029536e+02
      vertex   4.900003e+00 -1.800000e+00 1.029536e+02
      vertex   5.300003e+00 1.218000e+02 1.029536e+02
    endloop
  endfacet
  facet normal 0.000000e+00 -2.299491e-16 1.000000e+00
    outer loop
      vertex   5.300003e+00 1.218000e+02 1.029536e+02
      vertex   4.900003e+00 -1.800000e+00 1.029536e+02
      vertex   5.300003e+00 -1.800000e+00 1.029536e+02
    endloop
  endfacet
  facet normal 7.071068e-01 -7.071068e-01 -3.911773e-15
    outer loop
      vertex   5.000003e+00 -4.475000e+00 4.092858e+01
      vertex   6.700004e+00 -2.775000e+00 4.092858e+01
      vertex   5.000003e+00 -4.475000e+00 7.592858e+01
    endloop
  endfacet
  facet normal 7.071068e-01 -7.071068e-01 -3.678501e-15
    outer loop
      vertex   5.000003e+00 -4.475000e+00 7.592858e+01
      vertex   6.700004e+00 -2.775000e+00 4.092858e+01
      vertex   6.700004e+00 -2.775000e+00 7.592858e+01
    endloop
  endfacet
  facet normal 1.065815e-13 -1.000000e+00 -5.633589e-15
    outer loop
      vertex   5.000003e+00 -4.475000e+00 4.092858e+01
      vertex   5.000003e+00 -4.475000e+00 7.592858e+01
      vertex   4.900003e+00 -4.475000e+00 4.092858e+01
    endloop
  endfacet
  facet normal 1.065815e-13 -1.000000e+00 -5.633589e-15
    outer loop
      vertex   4.900003e+00 -4.475000e+00 4.092858e+01
      vertex   5.000003e+00 -4.475000e+00 7.592858e+01
      vertex   4.900003e+00 -4.475000e+00 7.592858e+01
    endloop
  endfacet
  facet normal -0.000000e+00 1.000000e+00 5.684342e-15
    outer loop
      vertex   4.900003e+00 1.244750e+02 4.092858e+01
      vertex   4.900003e+00 1.244750e+02 7.592858e+01
      vertex   5.000003e+00 1.244750e+02 4.092858e+01
    endloop
  endfacet
  facet normal 0.000000e+00 1.000000e+00 5.684342e-15
    outer loop
      vertex   5.000003e+00 1.244750e+02 4.092858e+01
      vertex   4.900003e+00 1.244750e+02 7.592858e+01
      vertex   5.000003e+00 1.244750e+02 7.592858e+01
    endloop
  endfacet
  facet normal 7.071068e-01 7.071068e-01 4.378315e-15
    outer loop
      vertex   6.700004e+00 1.227750e+02 4.092858e+01
      vertex   5.000003e+00 1.244750e+02 4.092858e+01
      vertex   6.700004e+00 1.227750e+02 7.592858e+01
    endloop
  endfacet
  facet normal 7.071068e-01 7.071068e-01 4.290705e-15
    outer loop
      vertex   6.700004e+00 1.227750e+02 7.592858e+01
      vertex   5.000003e+00 1.244750e+02 4.092858e+01
      vertex   5.000003e+00 1.244750e+02 7.592858e+01
    endloop
  endfacet
  facet normal -1.000000e+00 3.585964e-16 -3.707773e-17
    outer loop
      vertex   4.900003e+00 1.244750e+02 1.697409e+01
      vertex   4.900003e+00 1.218000e+02 1.505738e+01
      vertex   4.900003e+00 1.244750e+02 4.092858e+01
    endloop
  endfacet
  facet normal -1.000000e+00 0.000000e+00 0.000000e+00
    outer loop
      vertex   4.900003e+00 1.244750e+02 4.092858e+01
      vertex   4.900003e+00 1.218000e+02 1.505738e+01
      vertex   4.900003e+00 -1.800000e+00 1.505738e+01
    endloop
  endfacet
  facet normal -1.000000e+00 0.000000e+00 0.000000e+00
    outer loop
      vertex   4.900003e+00 1.244750e+02 4.092858e+01
      vertex   4.900003e+00 -1.800000e+00 1.505738e+01
      vertex   4.900003e+00 -4.475000e+00 4.092858e+01
    endloop
  endfacet
  facet normal -1.000000e+00 -3.585964e-16 -3.707773e-17
    outer loop
      vertex   4.900003e+00 -4.475000e+00 4.092858e+01
      vertex   4.900003e+00 -1.800000e+00 1.505738e+01
      vertex   4.900003e+00 -4.475001e+00 1.697409e+01
    endloop
  endfacet
  facet normal -1.000000e+00 -5.150649e-15 -6.724978e-15
    outer loop
      vertex   4.900003e+00 -4.475001e+00 1.697409e+01
      vertex   4.900003e+00 -1.800000e+00 1.505738e+01
      vertex   4.900003e+00 -4.169140e+00 1.634361e+01
    endloop
  endfacet
  facet normal -1.000000e+00 -2.764886e-15 -2.330593e-15
    outer loop
      vertex   4.900003e+00 -4.169140e+00 1.634361e+01
      vertex   4.900003e+00 -1.800000e+00 1.505738e+01
      vertex   4.900003e+00 -3.717507e+00 1.580782e+01
    endloop
  endfacet
  facet normal -1.000000e+00 -4.082765e-15 -5.698002e-15
    outer loop
      vertex   4.900003e+00 -3.717507e+00 1.580782e+01
      vertex   4.900003e+00 -1.800000e+00 1.505738e+01
      vertex   4.900003e+00 -3.147889e+00 1.539967e+01
    endloop
  endfacet
  facet normal -1.000000e+00 -7.506823e-15 -1.918122e-14
    outer loop
      vertex   4.900003e+00 -3.147889e+00 1.539967e+01
      vertex   4.900003e+00 -1.800000e+00 1.505738e+01
      vertex   4.900003e+00 -2.495337e+00 1.514429e+01
    endloop
  endfacet
  facet normal -1.000000e+00 5.150649e-15 -6.724978e-15
    outer loop
      vertex   4.900003e+00 1.244750e+02 1.697409e+01
      vertex   4.900003e+00 1.241691e+02 1.634361e+01
      vertex   4.900003e+00 1.218000e+02 1.505738e+01
    endloop
  endfacet
  facet normal -1.000000e+00 2.764886e-15 -2.330593e-15
    outer loop
      vertex   4.900003e+00 1.218000e+02 1.505738e+01
      vertex   4.900003e+00 1.241691e+02 1.634361e+01
      vertex   4.900003e+00 1.237175e+02 1.580782e+01
    endloop
  endfacet
  facet normal -1.000000e+00 4.082765e-15 -5.698002e-15
    outer loop
      vertex   4.900003e+00 1.218000e+02 1.505738e+01
      vertex   4.900003e+00 1.237175e+02 1.580782e+01
      vertex   4.900003e+00 1.231479e+02 1.539967e+01
    endloop
  endfacet
  facet normal -1.000000e+00 7.506823e-15 -1.918122e-14
    outer loop
      vertex   4.900003e+00 1.231479e+02 1.539967e+01
      vertex   4.900003e+00 1.224953e+02 1.514429e+01
      vertex   4.900003e+00 1.218000e+02 1.505738e+01
    endloop
  endfacet
  facet normal -1.000000e+00 1.996775e-30 -3.552714e-16
    outer loop
      vertex   4.900003e+00 1.244750e+02 4.092858e+01
      vertex   4.900003e+00 -4.475000e+00 4.092858e+01
      vertex   4.900003e+00 1.244750e+02 7.592858e+01
    endloop
  endfacet
  facet normal -1.000000e+00 2.035928e-30 -3.552714e-16
    outer loop
      vertex   4.900003e+00 1.244750e+02 7.592858e+01
      vertex   4.900003e+00 -4.475000e+00 4.092858e+01
      vertex   4.900003e+00 -4.475000e+00 7.592858e+01
    endloop
  endfacet
  facet normal -1.000000e+00 -0.000000e+00 0.000000e+00
    outer loop
      vertex   4.900003e+00 1.244750e+02 7.592858e+01
      vertex   4.900003e+00 -4.475000e+00 7.592858e+01
      vertex   4.900003e+00 1.218000e+02 1.029536e+02
    endloop
  endfacet
  facet normal -1.000000e+00 0.000000e+00 0.000000e+00
    outer loop
      vertex   4.900003e+00 1.218000e+02 1.029536e+02
      vertex   4.900003e+00 -4.475000e+00 7.592858e+01
      vertex   4.900003e+00 -1.800000e+00 1.029536e+02
    endloop
  endfacet
  facet normal -1.000000e+00 0.000000e+00 0.000000e+00
    outer loop
      vertex   4.900003e+00 -1.800000e+00 1.029536e+02
      vertex   4.900003e+00 -4.475000e+00 7.592858e+01
      vertex   4.900003e+00 -4.475000e+00 1.018821e+02
    endloop
  endfacet
  facet normal -1.000000e+00 1.589773e-15 -3.969124e-15
    outer loop
      vertex   4.900003e+00 -1.800000e+00 1.029536e+02
      vertex   4.900003e+00 -4.475000e+00 1.018821e+02
      vertex   4.900003e+00 -3.895806e+00 1.023379e+02
    endloop
  endfacet
  facet normal -1.000000e+00 9.844733e-16 -1.908626e-15
    outer loop
      vertex   4.900003e+00 -3.895806e+00 1.023379e+02
      vertex   4.900003e+00 -3.240797e+00 1.026758e+02
      vertex   4.900003e+00 -1.800000e+00 1.029536e+02
    endloop
  endfacet
  facet normal -1.000000e+00 -6.052994e-16 6.336165e-15
    outer loop
      vertex   4.900003e+00 -1.800000e+00 1.029536e+02
      vertex   4.900003e+00 -3.240797e+00 1.026758e+02
      vertex   4.900003e+00 -2.533669e+00 1.028835e+02
    endloop
  endfacet
  facet normal -1.000000e+00 6.052994e-16 6.336165e-15
    outer loop
      vertex   4.900003e+00 1.225337e+02 1.028835e+02
      vertex   4.900003e+00 1.232408e+02 1.026758e+02
      vertex   4.900003e+00 1.218000e+02 1.029536e+02
    endloop
  endfacet
  facet normal -1.000000e+00 -9.844733e-16 -1.908626e-15
    outer loop
      vertex   4.900003e+00 1.218000e+02 1.029536e+02
      vertex   4.900003e+00 1.232408e+02 1.026758e+02
      vertex   4.900003e+00 1.238958e+02 1.023379e+02
    endloop
  endfacet
  facet normal -1.000000e+00 -1.589773e-15 -3.969124e-15
    outer loop
      vertex   4.900003e+00 1.218000e+02 1.029536e+02
      vertex   4.900003e+00 1.238958e+02 1.023379e+02
      vertex   4.900003e+00 1.244750e+02 1.018821e+02
    endloop
  endfacet
  facet normal -1.000000e+00 -0.000000e+00 -0.000000e+00
    outer loop
      vertex   4.900003e+00 1.244750e+02 1.018821e+02
      vertex   4.900003e+00 1.244750e+02 7.592858e+01
      vertex   4.900003e+00 1.218000e+02 1.029536e+02
    endloop
  endfacet
  facet normal 1.065815e-13 -1.000000e+00 1.581346e-08
    outer loop
      vertex   4.900003e+00 -4.475000e+00 4.092858e+01
      vertex   4.900003e+00 -4.475001e+00 1.697409e+01
      vertex   5.000003e+00 -4.475000e+00 4.092858e+01
    endloop
  endfacet
  facet normal 1.865177e-13 -1.000000e+00 1.581346e-08
    outer loop
      vertex   5.000003e+00 -4.475000e+00 4.092858e+01
      vertex   4.900003e+00 -4.475001e+00 1.697409e+01
      vertex   5.000003e+00 -4.475001e+00 1.697409e+01
    endloop
  endfacet
  facet normal 3.173600e-14 -9.316217e-01 -3.634296e-01
    outer loop
      vertex   5.000003e+00 -4.475001e+00 1.697409e+01
      vertex   4.900003e+00 -4.475001e+00 1.697409e+01
      vertex   5.091580e+00 -4.383424e+00 1.673934e+01
    endloop
  endfacet
  facet normal -1.041914e-01 -8.948181e-01 -4.341021e-01
    outer loop
      vertex   5.091580e+00 -4.383424e+00 1.673934e+01
      vertex   4.900003e+00 -4.475001e+00 1.697409e+01
      vertex   4.900003e+00 -4.169140e+00 1.634361e+01
    endloop
  endfacet
  facet normal -1.102152e-02 -8.815249e-01 -4.720089e-01
    outer loop
      vertex   5.091580e+00 -4.383424e+00 1.673934e+01
      vertex   4.900003e+00 -4.169140e+00 1.634361e+01
      vertex   5.125125e+00 -4.188677e+00 1.637484e+01
    endloop
  endfacet
  facet normal 1.245104e-02 -8.049030e-01 -5.932757e-01
    outer loop
      vertex   5.125125e+00 -4.188677e+00 1.637484e+01
      vertex   4.900003e+00 -4.169140e+00 1.634361e+01
      vertex   5.155787e+00 -3.945525e+00 1.604560e+01
    endloop
  endfacet
  facet normal -8.218686e-02 -7.620154e-01 -6.423222e-01
    outer loop
      vertex   5.155787e+00 -3.945525e+00 1.604560e+01
      vertex   4.900003e+00 -4.169140e+00 1.634361e+01
      vertex   4.900003e+00 -3.717507e+00 1.580782e+01
    endloop
  endfacet
  facet normal 1.473451e-02 -7.137234e-01 -7.002726e-01
    outer loop
      vertex   5.155787e+00 -3.945525e+00 1.604560e+01
      vertex   4.900003e+00 -3.717507e+00 1.580782e+01
      vertex   5.182475e+00 -3.666751e+00 1.576203e+01
    endloop
  endfacet
  facet normal -2.064808e-02 -6.038885e-01 -7.968013e-01
    outer loop
      vertex   5.182475e+00 -3.666751e+00 1.576203e+01
      vertex   4.900003e+00 -3.717507e+00 1.580782e+01
      vertex   5.205400e+00 -3.349227e+00 1.552079e+01
    endloop
  endfacet
  facet normal -6.149587e-02 -5.813409e-01 -8.113328e-01
    outer loop
      vertex   5.205400e+00 -3.349227e+00 1.552079e+01
      vertex   4.900003e+00 -3.717507e+00 1.580782e+01
      vertex   4.900003e+00 -3.147889e+00 1.539967e+01
    endloop
  endfacet
  facet normal 2.455810e-02 -4.877044e-01 -8.726634e-01
    outer loop
      vertex   5.205400e+00 -3.349227e+00 1.552079e+01
      vertex   4.900003e+00 -3.147889e+00 1.539967e+01
      vertex   5.224595e+00 -2.989668e+00 1.532038e+01
    endloop
  endfacet
  facet normal -4.976666e-02 -3.639953e-01 -9.300703e-01
    outer loop
      vertex   5.224595e+00 -2.989668e+00 1.532038e+01
      vertex   4.900003e+00 -3.147889e+00 1.539967e+01
      vertex   4.900003e+00 -2.495337e+00 1.514429e+01
    endloop
  endfacet
  facet normal -2.892004e-02 -3.522292e-01 -9.354668e-01
    outer loop
      vertex   5.224595e+00 -2.989668e+00 1.532038e+01
      vertex   4.900003e+00 -2.495337e+00 1.514429e+01
      vertex   5.238746e+00 -2.600891e+00 1.517356e+01
    endloop
  endfacet
  facet normal 1.825103e-02 -2.123713e-01 -9.770186e-01
    outer loop
      vertex   5.238746e+00 -2.600891e+00 1.517356e+01
      vertex   4.900003e+00 -2.495337e+00 1.514429e+01
      vertex   5.247201e+00 -2.198321e+00 1.508621e+01
    endloop
  endfacet
  facet normal -5.977082e-02 -1.238042e-01 -9.905049e-01
    outer loop
      vertex   5.247201e+00 -2.198321e+00 1.508621e+01
      vertex   4.900003e+00 -2.495337e+00 1.514429e+01
      vertex   4.900003e+00 -1.800000e+00 1.505738e+01
    endloop
  endfacet
  facet normal -1.811446e-07 -7.220330e-02 -9.973899e-01
    outer loop
      vertex   5.247201e+00 -2.198321e+00 1.508621e+01
      vertex   4.900003e+00 -1.800000e+00 1.505738e+01
      vertex   5.250003e+00 -1.800001e+00 1.505738e+01
    endloop
  endfacet
  facet normal -5.075308e-15 3.161800e-16 -1.000000e+00
    outer loop
      vertex   5.250003e+00 1.218000e+02 1.505738e+01
      vertex   5.250003e+00 -1.800001e+00 1.505738e+01
      vertex   4.900003e+00 1.218000e+02 1.505738e+01
    endloop
  endfacet
  facet normal -5.075307e-15 3.161800e-16 -1.000000e+00
    outer loop
      vertex   4.900003e+00 1.218000e+02 1.505738e+01
      vertex   5.250003e+00 -1.800001e+00 1.505738e+01
      vertex   4.900003e+00 -1.800000e+00 1.505738e+01
    endloop
  endfacet
  facet normal 7.071068e-01 2.235730e-16 -7.071068e-01
    outer loop
      vertex   6.700004e+00 1.218000e+02 1.650738e+01
      vertex   6.700004e+00 -1.800000e+00 1.650738e+01
      vertex   5.250003e+00 1.218000e+02 1.505738e+01
    endloop
  endfacet
  facet normal 7.071068e-01 2.235730e-16 -7.071068e-01
    outer loop
      vertex   5.250003e+00 1.218000e+02 1.505738e+01
      vertex   6.700004e+00 -1.800000e+00 1.650738e+01
      vertex   5.250003e+00 -1.800001e+00 1.505738e+01
    endloop
  endfacet
  facet normal -9.636355e-15 9.316217e-01 -3.634296e-01
    outer loop
      vertex   5.000003e+00 1.244750e+02 1.697409e+01
      vertex   5.091580e+00 1.243834e+02 1.673934e+01
      vertex   4.900003e+00 1.244750e+02 1.697409e+01
    endloop
  endfacet
  facet normal -1.041914e-01 8.948181e-01 -4.341021e-01
    outer loop
      vertex   4.900003e+00 1.244750e+02 1.697409e+01
      vertex   5.091580e+00 1.243834e+02 1.673934e+01
      vertex   4.900003e+00 1.241691e+02 1.634361e+01
    endloop
  endfacet
  facet normal -1.102151e-02 8.815249e-01 -4.720089e-01
    outer loop
      vertex   4.900003e+00 1.241691e+02 1.634361e+01
      vertex   5.091580e+00 1.243834e+02 1.673934e+01
      vertex   5.125125e+00 1.241887e+02 1.637484e+01
    endloop
  endfacet
  facet normal 1.245104e-02 8.049030e-01 -5.932757e-01
    outer loop
      vertex   4.900003e+00 1.241691e+02 1.634361e+01
      vertex   5.125125e+00 1.241887e+02 1.637484e+01
      vertex   5.155787e+00 1.239455e+02 1.604560e+01
    endloop
  endfacet
  facet normal -8.218686e-02 7.620154e-01 -6.423222e-01
    outer loop
      vertex   4.900003e+00 1.241691e+02 1.634361e+01
      vertex   5.155787e+00 1.239455e+02 1.604560e+01
      vertex   4.900003e+00 1.237175e+02 1.580782e+01
    endloop
  endfacet
  facet normal 1.473451e-02 7.137234e-01 -7.002726e-01
    outer loop
      vertex   4.900003e+00 1.237175e+02 1.580782e+01
      vertex   5.155787e+00 1.239455e+02 1.604560e+01
      vertex   5.182475e+00 1.236668e+02 1.576203e+01
    endloop
  endfacet
  facet normal -2.064809e-02 6.038885e-01 -7.968013e-01
    outer loop
      vertex   4.900003e+00 1.237175e+02 1.580782e+01
      vertex   5.182475e+00 1.236668e+02 1.576203e+01
      vertex   5.205400e+00 1.233492e+02 1.552079e+01
    endloop
  endfacet
  facet normal -6.149587e-02 5.813410e-01 -8.113328e-01
    outer loop
      vertex   4.900003e+00 1.237175e+02 1.580782e+01
      vertex   5.205400e+00 1.233492e+02 1.552079e+01
      vertex   4.900003e+00 1.231479e+02 1.539967e+01
    endloop
  endfacet
  facet normal 2.455810e-02 4.877044e-01 -8.726634e-01
    outer loop
      vertex   4.900003e+00 1.231479e+02 1.539967e+01
      vertex   5.205400e+00 1.233492e+02 1.552079e+01
      vertex   5.224595e+00 1.229897e+02 1.532038e+01
    endloop
  endfacet
  facet normal -4.976666e-02 3.639953e-01 -9.300703e-01
    outer loop
      vertex   4.900003e+00 1.231479e+02 1.539967e+01
      vertex   5.224595e+00 1.229897e+02 1.532038e+01
      vertex   4.900003e+00 1.224953e+02 1.514429e+01
    endloop
  endfacet
  facet normal -2.892004e-02 3.522292e-01 -9.354668e-01
    outer loop
      vertex   4.900003e+00 1.224953e+02 1.514429e+01
      vertex   5.224595e+00 1.229897e+02 1.532038e+01
      vertex   5.238746e+00 1.226009e+02 1.517356e+01
    endloop
  endfacet
  facet normal 1.825103e-02 2.123713e-01 -9.770186e-01
    outer loop
      vertex   4.900003e+00 1.224953e+02 1.514429e+01
      vertex   5.238746e+00 1.226009e+02 1.517356e+01
      vertex   5.247201e+00 1.221983e+02 1.508621e+01
    endloop
  endfacet
  facet normal -1.811446e-07 7.220330e-02 -9.973899e-01
    outer loop
      vertex   5.250003e+00 1.218000e+02 1.505738e+01
      vertex   4.900003e+00 1.218000e+02 1.505738e+01
      vertex   5.247201e+00 1.221983e+02 1.508621e+01
    endloop
  endfacet
  facet normal -5.977082e-02 1.238042e-01 -9.905049e-01
    outer loop
      vertex   5.247201e+00 1.221983e+02 1.508621e+01
      vertex   4.900003e+00 1.218000e+02 1.505738e+01
      vertex   4.900003e+00 1.224953e+02 1.514429e+01
    endloop
  endfacet
  facet normal 7.071712e-01 -6.248102e-01 -3.309397e-01
    outer loop
      vertex   6.366703e+00 -3.108301e+00 1.698818e+01
      vertex   5.125125e+00 -4.188677e+00 1.637484e+01
      vertex   6.700004e+00 -2.775000e+00 1.707113e+01
    endloop
  endfacet
  facet normal 7.054133e-01 -5.999710e-01 -3.773948e-01
    outer loop
      vertex   6.700004e+00 -2.775000e+00 1.707113e+01
      vertex   5.125125e+00 -4.188677e+00 1.637484e+01
      vertex   5.155787e+00 -3.945525e+00 1.604560e+01
    endloop
  endfacet
  facet normal 7.083364e-01 -5.715444e-01 -4.142421e-01
    outer loop
      vertex   6.700004e+00 -2.775000e+00 1.707113e+01
      vertex   5.155787e+00 -3.945525e+00 1.604560e+01
      vertex   6.700004e+00 -2.636811e+00 1.688047e+01
    endloop
  endfacet
  facet normal 7.053714e-01 -5.375385e-01 -4.620644e-01
    outer loop
      vertex   6.700004e+00 -2.636811e+00 1.688047e+01
      vertex   5.155787e+00 -3.945525e+00 1.604560e+01
      vertex   5.182475e+00 -3.666751e+00 1.576203e+01
    endloop
  endfacet
  facet normal 7.077604e-01 -4.731811e-01 -5.245711e-01
    outer loop
      vertex   6.700004e+00 -2.636811e+00 1.688047e+01
      vertex   5.182475e+00 -3.666751e+00 1.576203e+01
      vertex   6.700004e+00 -2.461960e+00 1.672274e+01
    endloop
  endfacet
  facet normal 7.060593e-01 -4.600218e-01 -5.383866e-01
    outer loop
      vertex   6.700004e+00 -2.461960e+00 1.672274e+01
      vertex   5.182475e+00 -3.666751e+00 1.576203e+01
      vertex   5.205400e+00 -3.349227e+00 1.552079e+01
    endloop
  endfacet
  facet normal 7.057956e-01 -3.732679e-01 -6.020993e-01
    outer loop
      vertex   6.700004e+00 -2.461960e+00 1.672274e+01
      vertex   5.205400e+00 -3.349227e+00 1.552079e+01
      vertex   5.224595e+00 -2.989668e+00 1.532038e+01
    endloop
  endfacet
  facet normal 7.063116e-01 -6.402410e-01 -3.020188e-01
    outer loop
      vertex   6.366703e+00 -3.108301e+00 1.698818e+01
      vertex   5.987532e+00 -3.487472e+00 1.690523e+01
      vertex   5.125125e+00 -4.188677e+00 1.637484e+01
    endloop
  endfacet
  facet normal 7.045928e-01 -6.482692e-01 -2.886104e-01
    outer loop
      vertex   5.125125e+00 -4.188677e+00 1.637484e+01
      vertex   5.987532e+00 -3.487472e+00 1.690523e+01
      vertex   5.562491e+00 -3.912513e+00 1.682229e+01
    endloop
  endfacet
  facet normal 7.025443e-01 -6.525221e-01 -2.839831e-01
    outer loop
      vertex   5.125125e+00 -4.188677e+00 1.637484e+01
      vertex   5.562491e+00 -3.912513e+00 1.682229e+01
      vertex   5.091580e+00 -4.383424e+00 1.673934e+01
    endloop
  endfacet
  facet normal 7.077692e-01 -3.536149e-01 -6.115711e-01
    outer loop
      vertex   6.700004e+00 -2.461960e+00 1.672274e+01
      vertex   5.224595e+00 -2.989668e+00 1.532038e+01
      vertex   6.700004e+00 -2.258107e+00 1.660488e+01
    endloop
  endfacet
  facet normal 7.051037e-01 -2.728440e-01 -6.545112e-01
    outer loop
      vertex   6.700004e+00 -2.258107e+00 1.660488e+01
      vertex   5.224595e+00 -2.989668e+00 1.532038e+01
      vertex   5.238746e+00 -2.600891e+00 1.517356e+01
    endloop
  endfacet
  facet normal 7.085263e-01 -2.183272e-01 -6.710616e-01
    outer loop
      vertex   6.700004e+00 -2.258107e+00 1.660488e+01
      vertex   5.238746e+00 -2.600891e+00 1.517356e+01
      vertex   6.700004e+00 -2.034183e+00 1.653202e+01
    endloop
  endfacet
  facet normal 7.050660e-01 -1.644783e-01 -6.898035e-01
    outer loop
      vertex   6.700004e+00 -2.034183e+00 1.653202e+01
      vertex   5.238746e+00 -2.600891e+00 1.517356e+01
      vertex   5.247201e+00 -2.198321e+00 1.508621e+01
    endloop
  endfacet
  facet normal 7.076526e-01 -7.394599e-02 -7.026804e-01
    outer loop
      vertex   6.700004e+00 -2.034183e+00 1.653202e+01
      vertex   5.247201e+00 -2.198321e+00 1.508621e+01
      vertex   6.700004e+00 -1.800000e+00 1.650738e+01
    endloop
  endfacet
  facet normal 7.059942e-01 -5.607428e-02 -7.059942e-01
    outer loop
      vertex   6.700004e+00 -1.800000e+00 1.650738e+01
      vertex   5.247201e+00 -2.198321e+00 1.508621e+01
      vertex   5.250003e+00 -1.800001e+00 1.505738e+01
    endloop
  endfacet
  facet normal 7.071068e-01 -7.071068e-01 1.118180e-08
    outer loop
      vertex   5.000003e+00 -4.475000e+00 4.092858e+01
      vertex   5.987532e+00 -3.487472e+00 1.690523e+01
      vertex   6.700004e+00 -2.775000e+00 4.092858e+01
    endloop
  endfacet
  facet normal 7.071068e-01 -7.071068e-01 1.118180e-08
    outer loop
      vertex   6.700004e+00 -2.775000e+00 4.092858e+01
      vertex   5.987532e+00 -3.487472e+00 1.690523e+01
      vertex   6.366703e+00 -3.108301e+00 1.698818e+01
    endloop
  endfacet
  facet normal 7.071068e-01 -7.071068e-01 1.118180e-08
    outer loop
      vertex   6.700004e+00 -2.775000e+00 4.092858e+01
      vertex   6.366703e+00 -3.108301e+00 1.698818e+01
      vertex   6.700004e+00 -2.775000e+00 1.707113e+01
    endloop
  endfacet
  facet normal 7.071068e-01 -7.071068e-01 1.118180e-08
    outer loop
      vertex   5.000003e+00 -4.475001e+00 1.697409e+01
      vertex   5.091580e+00 -4.383424e+00 1.673934e+01
      vertex   5.000003e+00 -4.475000e+00 4.092858e+01
    endloop
  endfacet
  facet normal 7.071068e-01 -7.071068e-01 1.118180e-08
    outer loop
      vertex   5.000003e+00 -4.475000e+00 4.092858e+01
      vertex   5.091580e+00 -4.383424e+00 1.673934e+01
      vertex   5.562491e+00 -3.912513e+00 1.682229e+01
    endloop
  endfacet
  facet normal 7.071068e-01 -7.071068e-01 1.118180e-08
    outer loop
      vertex   5.000003e+00 -4.475000e+00 4.092858e+01
      vertex   5.562491e+00 -3.912513e+00 1.682229e+01
      vertex   5.987532e+00 -3.487472e+00 1.690523e+01
    endloop
  endfacet
  facet normal 7.025443e-01 6.525221e-01 -2.839831e-01
    outer loop
      vertex   5.091580e+00 1.243834e+02 1.673934e+01
      vertex   5.562491e+00 1.239125e+02 1.682229e+01
      vertex   5.125125e+00 1.241887e+02 1.637484e+01
    endloop
  endfacet
  facet normal 7.045928e-01 6.482692e-01 -2.886104e-01
    outer loop
      vertex   5.125125e+00 1.241887e+02 1.637484e+01
      vertex   5.562491e+00 1.239125e+02 1.682229e+01
      vertex   5.987532e+00 1.234875e+02 1.690523e+01
    endloop
  endfacet
  facet normal 7.063116e-01 6.402410e-01 -3.020188e-01
    outer loop
      vertex   5.125125e+00 1.241887e+02 1.637484e+01
      vertex   5.987532e+00 1.234875e+02 1.690523e+01
      vertex   6.366703e+00 1.231083e+02 1.698818e+01
    endloop
  endfacet
  facet normal 7.071712e-01 6.248102e-01 -3.309397e-01
    outer loop
      vertex   6.366703e+00 1.231083e+02 1.698818e+01
      vertex   6.700004e+00 1.227750e+02 1.707113e+01
      vertex   5.125125e+00 1.241887e+02 1.637484e+01
    endloop
  endfacet
  facet normal 7.054133e-01 5.999710e-01 -3.773948e-01
    outer loop
      vertex   5.125125e+00 1.241887e+02 1.637484e+01
      vertex   6.700004e+00 1.227750e+02 1.707113e+01
      vertex   5.155787e+00 1.239455e+02 1.604560e+01
    endloop
  endfacet
  facet normal 7.083364e-01 5.715444e-01 -4.142421e-01
    outer loop
      vertex   5.155787e+00 1.239455e+02 1.604560e+01
      vertex   6.700004e+00 1.227750e+02 1.707113e+01
      vertex   6.700004e+00 1.226368e+02 1.688047e+01
    endloop
  endfacet
  facet normal 7.053714e-01 5.375385e-01 -4.620644e-01
    outer loop
      vertex   5.155787e+00 1.239455e+02 1.604560e+01
      vertex   6.700004e+00 1.226368e+02 1.688047e+01
      vertex   5.182475e+00 1.236668e+02 1.576203e+01
    endloop
  endfacet
  facet normal 7.077604e-01 4.731811e-01 -5.245711e-01
    outer loop
      vertex   5.182475e+00 1.236668e+02 1.576203e+01
      vertex   6.700004e+00 1.226368e+02 1.688047e+01
      vertex   6.700004e+00 1.224620e+02 1.672274e+01
    endloop
  endfacet
  facet normal 7.060593e-01 4.600218e-01 -5.383866e-01
    outer loop
      vertex   5.182475e+00 1.236668e+02 1.576203e+01
      vertex   6.700004e+00 1.224620e+02 1.672274e+01
      vertex   5.205400e+00 1.233492e+02 1.552079e+01
    endloop
  endfacet
  facet normal 7.057956e-01 3.732679e-01 -6.020993e-01
    outer loop
      vertex   5.205400e+00 1.233492e+02 1.552079e+01
      vertex   6.700004e+00 1.224620e+02 1.672274e+01
      vertex   5.224595e+00 1.229897e+02 1.532038e+01
    endloop
  endfacet
  facet normal 7.077692e-01 3.536149e-01 -6.115711e-01
    outer loop
      vertex   5.224595e+00 1.229897e+02 1.532038e+01
      vertex   6.700004e+00 1.224620e+02 1.672274e+01
      vertex   6.700004e+00 1.222581e+02 1.660488e+01
    endloop
  endfacet
  facet normal 7.051037e-01 2.728440e-01 -6.545112e-01
    outer loop
      vertex   5.224595e+00 1.229897e+02 1.532038e+01
      vertex   6.700004e+00 1.222581e+02 1.660488e+01
      vertex   5.238746e+00 1.226009e+02 1.517356e+01
    endloop
  endfacet
  facet normal 7.085263e-01 2.183272e-01 -6.710616e-01
    outer loop
      vertex   5.238746e+00 1.226009e+02 1.517356e+01
      vertex   6.700004e+00 1.222581e+02 1.660488e+01
      vertex   6.700004e+00 1.220342e+02 1.653202e+01
    endloop
  endfacet
  facet normal 7.050660e-01 1.644783e-01 -6.898035e-01
    outer loop
      vertex   5.238746e+00 1.226009e+02 1.517356e+01
      vertex   6.700004e+00 1.220342e+02 1.653202e+01
      vertex   5.247201e+00 1.221983e+02 1.508621e+01
    endloop
  endfacet
  facet normal 7.076526e-01 7.394599e-02 -7.026804e-01
    outer loop
      vertex   5.247201e+00 1.221983e+02 1.508621e+01
      vertex   6.700004e+00 1.220342e+02 1.653202e+01
      vertex   6.700004e+00 1.218000e+02 1.650738e+01
    endloop
  endfacet
  facet normal 7.059942e-01 5.607428e-02 -7.059942e-01
    outer loop
      vertex   5.247201e+00 1.221983e+02 1.508621e+01
      vertex   6.700004e+00 1.218000e+02 1.650738e+01
      vertex   5.250003e+00 1.218000e+02 1.505738e+01
    endloop
  endfacet
  facet normal 1.000000e+00 8.610331e-17 1.489142e-16
    outer loop
      vertex   6.700004e+00 -2.775000e+00 1.707113e+01
      vertex   6.700004e+00 -1.800000e+00 1.650738e+01
      vertex   6.700004e+00 -2.775000e+00 4.092858e+01
    endloop
  endfacet
  facet normal 1.000000e+00 -4.599680e-32 1.454766e-16
    outer loop
      vertex   6.700004e+00 -2.775000e+00 4.092858e+01
      vertex   6.700004e+00 -1.800000e+00 1.650738e+01
      vertex   6.700004e+00 1.218000e+02 1.650738e+01
    endloop
  endfacet
  facet normal 1.000000e+00 -1.414860e-17 7.330318e-17
    outer loop
      vertex   6.700004e+00 -2.775000e+00 4.092858e+01
      vertex   6.700004e+00 1.218000e+02 1.650738e+01
      vertex   6.700004e+00 1.227750e+02 4.092858e+01
    endloop
  endfacet
  facet normal 1.000000e+00 8.894261e-16 3.722857e-17
    outer loop
      vertex   6.700004e+00 1.227750e+02 4.092858e+01
      vertex   6.700004e+00 1.218000e+02 1.650738e+01
      vertex   6.700004e+00 1.227750e+02 1.707113e+01
    endloop
  endfacet
  facet normal 1.000000e+00 -1.234143e-14 2.291978e-14
    outer loop
      vertex   6.700004e+00 1.227750e+02 1.707113e+01
      vertex   6.700004e+00 1.218000e+02 1.650738e+01
      vertex   6.700004e+00 1.226368e+02 1.688047e+01
    endloop
  endfacet
  facet normal 1.000000e+00 -4.197401e-15 4.653261e-15
    outer loop
      vertex   6.700004e+00 1.226368e+02 1.688047e+01
      vertex   6.700004e+00 1.218000e+02 1.650738e+01
      vertex   6.700004e+00 1.224620e+02 1.672274e+01
    endloop
  endfacet
  facet normal 1.000000e+00 -6.136203e-15 1.061246e-14
    outer loop
      vertex   6.700004e+00 1.224620e+02 1.672274e+01
      vertex   6.700004e+00 1.218000e+02 1.650738e+01
      vertex   6.700004e+00 1.222581e+02 1.660488e+01
    endloop
  endfacet
  facet normal 1.000000e+00 -1.121182e-14 3.446122e-14
    outer loop
      vertex   6.700004e+00 1.222581e+02 1.660488e+01
      vertex   6.700004e+00 1.218000e+02 1.650738e+01
      vertex   6.700004e+00 1.220342e+02 1.653202e+01
    endloop
  endfacet
  facet normal 1.000000e+00 9.273020e-15 1.603753e-14
    outer loop
      vertex   6.700004e+00 -2.775000e+00 1.707113e+01
      vertex   6.700004e+00 -2.636811e+00 1.688047e+01
      vertex   6.700004e+00 -1.800000e+00 1.650738e+01
    endloop
  endfacet
  facet normal 1.000000e+00 4.197401e-15 4.653261e-15
    outer loop
      vertex   6.700004e+00 -1.800000e+00 1.650738e+01
      vertex   6.700004e+00 -2.636811e+00 1.688047e+01
      vertex   6.700004e+00 -2.461960e+00 1.672274e+01
    endloop
  endfacet
  facet normal 1.000000e+00 6.136203e-15 1.061246e-14
    outer loop
      vertex   6.700004e+00 -1.800000e+00 1.650738e+01
      vertex   6.700004e+00 -2.461960e+00 1.672274e+01
      vertex   6.700004e+00 -2.258107e+00 1.660488e+01
    endloop
  endfacet
  facet normal 1.000000e+00 1.121182e-14 3.446122e-14
    outer loop
      vertex   6.700004e+00 -2.258107e+00 1.660488e+01
      vertex   6.700004e+00 -2.034183e+00 1.653202e+01
      vertex   6.700004e+00 -1.800000e+00 1.650738e+01
    endloop
  endfacet
  facet normal 1.000000e+00 -1.414860e-17 4.567775e-16
    outer loop
      vertex   6.700004e+00 -2.775000e+00 4.092858e+01
      vertex   6.700004e+00 1.227750e+02 4.092858e+01
      vertex   6.700004e+00 -2.775000e+00 7.592858e+01
    endloop
  endfacet
  facet normal 1.000000e+00 -2.872339e-30 5.075305e-16
    outer loop
      vertex   6.700004e+00 -2.775000e+00 7.592858e+01
      vertex   6.700004e+00 1.227750e+02 4.092858e+01
      vertex   6.700004e+00 1.227750e+02 7.592858e+01
    endloop
  endfacet
  facet normal 1.000000e+00 0.000000e+00 0.000000e+00
    outer loop
      vertex   6.700004e+00 -2.775000e+00 7.592858e+01
      vertex   6.700004e+00 1.227750e+02 7.592858e+01
      vertex   6.700004e+00 -1.800000e+00 1.015536e+02
    endloop
  endfacet
  facet normal 1.000000e+00 -0.000000e+00 0.000000e+00
    outer loop
      vertex   6.700004e+00 -1.800000e+00 1.015536e+02
      vertex   6.700004e+00 1.227750e+02 7.592858e+01
      vertex   6.700004e+00 1.218000e+02 1.015536e+02
    endloop
  endfacet
  facet normal 1.000000e+00 -1.836247e-14 -6.986695e-16
    outer loop
      vertex   6.700004e+00 1.218000e+02 1.015536e+02
      vertex   6.700004e+00 1.227750e+02 7.592858e+01
      vertex   6.700004e+00 1.227750e+02 1.013534e+02
    endloop
  endfacet
  facet normal 1.000000e+00 -4.390868e-14 -1.251510e-13
    outer loop
      vertex   6.700004e+00 1.218000e+02 1.015536e+02
      vertex   6.700004e+00 1.227750e+02 1.013534e+02
      vertex   6.700004e+00 1.224600e+02 1.014639e+02
    endloop
  endfacet
  facet normal 1.000000e+00 -7.952132e-14 -3.874005e-13
    outer loop
      vertex   6.700004e+00 1.224600e+02 1.014639e+02
      vertex   6.700004e+00 1.221330e+02 1.015311e+02
      vertex   6.700004e+00 1.218000e+02 1.015536e+02
    endloop
  endfacet
  facet normal 1.000000e+00 7.952132e-14 -3.874005e-13
    outer loop
      vertex   6.700004e+00 -2.133040e+00 1.015311e+02
      vertex   6.700004e+00 -2.460023e+00 1.014639e+02
      vertex   6.700004e+00 -1.800000e+00 1.015536e+02
    endloop
  endfacet
  facet normal 1.000000e+00 4.390868e-14 -1.251510e-13
    outer loop
      vertex   6.700004e+00 -1.800000e+00 1.015536e+02
      vertex   6.700004e+00 -2.460023e+00 1.014639e+02
      vertex   6.700004e+00 -2.774999e+00 1.013534e+02
    endloop
  endfacet
  facet normal 1.000000e+00 1.836247e-14 -6.986695e-16
    outer loop
      vertex   6.700004e+00 -1.800000e+00 1.015536e+02
      vertex   6.700004e+00 -2.774999e+00 1.013534e+02
      vertex   6.700004e+00 -2.775000e+00 7.592858e+01
    endloop
  endfacet
  facet normal 7.071068e-01 7.071068e-01 1.118180e-08
    outer loop
      vertex   6.700004e+00 1.227750e+02 4.092858e+01
      vertex   5.987532e+00 1.234875e+02 1.690523e+01
      vertex   5.000003e+00 1.244750e+02 4.092858e+01
    endloop
  endfacet
  facet normal 7.071068e-01 7.071068e-01 1.118180e-08
    outer loop
      vertex   5.000003e+00 1.244750e+02 4.092858e+01
      vertex   5.987532e+00 1.234875e+02 1.690523e+01
      vertex   5.562491e+00 1.239125e+02 1.682229e+01
    endloop
  endfacet
  facet normal 7.071068e-01 7.071068e-01 1.118180e-08
    outer loop
      vertex   5.000003e+00 1.244750e+02 4.092858e+01
      vertex   5.562491e+00 1.239125e+02 1.682229e+01
      vertex   5.091580e+00 1.243834e+02 1.673934e+01
    endloop
  endfacet
  facet normal 7.071068e-01 7.071068e-01 1.118180e-08
    outer loop
      vertex   6.700004e+00 1.227750e+02 1.707113e+01
      vertex   6.366703e+00 1.231083e+02 1.698818e+01
      vertex   6.700004e+00 1.227750e+02 4.092858e+01
    endloop
  endfacet
  facet normal 7.071068e-01 7.071068e-01 1.118180e-08
    outer loop
      vertex   6.700004e+00 1.227750e+02 4.092858e+01
      vertex   6.366703e+00 1.231083e+02 1.698818e+01
      vertex   5.987532e+00 1.234875e+02 1.690523e+01
    endloop
  endfacet
  facet normal 7.071068e-01 7.071068e-01 1.118180e-08
    outer loop
      vertex   5.091580e+00 1.243834e+02 1.673934e+01
      vertex   5.000003e+00 1.244750e+02 1.697409e+01
      vertex   5.000003e+00 1.244750e+02 4.092858e+01
    endloop
  endfacet
  facet normal 0.000000e+00 1.000000e+00 1.581346e-08
    outer loop
      vertex   5.000003e+00 1.244750e+02 4.092858e+01
      vertex   5.000003e+00 1.244750e+02 1.697409e+01
      vertex   4.900003e+00 1.244750e+02 4.092858e+01
    endloop
  endfacet
  facet normal 1.421087e-13 1.000000e+00 1.581346e-08
    outer loop
      vertex   4.900003e+00 1.244750e+02 4.092858e+01
      vertex   5.000003e+00 1.244750e+02 1.697409e+01
      vertex   4.900003e+00 1.244750e+02 1.697409e+01
    endloop
  endfacet
endsolid
